<svg width="15" height="15" viewBox="0 0 15 15" fill="none" xmlns="http://www.w3.org/2000/svg">
<g clip-path="url(#clip0_36_626)">
<path d="M8.38374 7.50112L14.8167 1.06812C15.0611 0.823751 15.0611 0.428762 14.8167 0.184392C14.5724 -0.0599787 14.1774 -0.0599787 13.933 0.184392L7.50001 6.61739L1.06701 0.184392C0.822637 -0.0599787 0.427648 -0.0599787 0.183278 0.184392C-0.0610926 0.428762 -0.0610926 0.823751 0.183278 1.06812L6.61628 7.50112L0.183278 13.9341C-0.0610926 14.1785 -0.0610926 14.5735 0.183278 14.8179C0.305155 14.9397 0.465149 15.001 0.625143 15.001C0.785137 15.001 0.94513 14.9397 1.06701 14.8179L7.50001 8.38485L13.933 14.8179C14.0549 14.9397 14.2149 15.001 14.3749 15.001C14.5349 15.001 14.6949 14.9397 14.8167 14.8179C15.0611 14.5735 15.0611 14.1785 14.8167 13.9341L8.38374 7.50112Z" fill="#3E3F50"/>
</g>
<defs>
<clipPath id="clip0_36_626">
<rect width="15" height="15" fill="white"/>
</clipPath>
</defs>
</svg>
